<?xml version="1.0" encoding="UTF-8"?>
<!DOCTYPE svg PUBLIC "-//W3C//DTD SVG 1.1//EN" "http://www.w3.org/Graphics/SVG/1.1/DTD/svg11.dtd">
<svg xmlns="http://www.w3.org/2000/svg" version="1.1" width="200px" height="358px" style="shape-rendering:geometricPrecision; text-rendering:geometricPrecision; image-rendering:optimizeQuality; fill-rule:evenodd; clip-rule:evenodd" xmlns:xlink="http://www.w3.org/1999/xlink">
<g><path style="opacity:1" fill="#f0a6c8" d="M 186.5,117.5 C 182.343,118.866 178.343,118.366 174.5,116C 165.762,114.846 157.262,115.679 149,118.5C 146.813,118.212 144.646,117.878 142.5,117.5C 142.873,120.574 143.539,123.574 144.5,126.5C 141.393,132.545 142.726,137.711 148.5,142C 147.944,142.383 147.611,142.883 147.5,143.5C 144.909,144.254 143.076,145.921 142,148.5C 140.256,161.099 145.089,170.266 156.5,176C 151.944,176.109 147.611,177.109 143.5,179C 133.645,183.755 124.312,189.255 115.5,195.5C 115.217,194.711 114.717,194.044 114,193.5C 112.385,194.386 110.885,195.386 109.5,196.5C 111.925,188.626 114.092,180.626 116,172.5C 120.542,166.29 126.042,161.124 132.5,157C 130.212,156.582 128.212,157.249 126.5,159C 123.333,162.167 120.167,165.333 117,168.5C 117.008,147.893 122.675,129.226 134,112.5C 125.534,120.762 120.201,130.762 118,142.5C 116.4,154.957 114.067,167.29 111,179.5C 110.101,183.538 108.434,187.205 106,190.5C 103.658,176.261 102.992,161.927 104,147.5C 107.445,142.945 110.112,137.945 112,132.5C 114.154,119.739 117.321,107.239 121.5,95C 121.056,93.2382 120.556,93.4049 120,95.5C 115.221,108.952 111.221,122.619 108,136.5C 106.907,138.349 105.574,140.016 104,141.5C 104.024,121.157 104.691,100.824 106,80.5C 108.274,66.5233 110.44,52.5233 112.5,38.5C 112.333,36.1667 112.167,33.8333 112,31.5C 108.688,45.7462 105.855,60.0795 103.5,74.5C 102.67,63.6743 102.17,52.6743 102,41.5C 100.63,53.7865 100.13,66.1198 100.5,78.5C 100.665,81.8499 100.498,85.1832 100,88.5C 92.9893,79.8082 89.3226,69.8082 89,58.5C 87.9605,56.2537 86.7938,54.087 85.5,52C 84.8333,51.3333 84.1667,51.3333 83.5,52C 86.3385,57.5216 87.8385,63.3549 88,69.5C 86.6667,67.5 85.3333,65.5 84,63.5C 82.8867,61.6707 81.3867,60.8374 79.5,61C 87.8448,70.5148 94.0115,81.3481 98,93.5C 98.4779,113.853 97.9779,134.186 96.5,154.5C 92.9277,150.369 90.0944,145.702 88,140.5C 87.8458,143.063 88.3458,145.563 89.5,148C 89.1667,148.5 88.8333,149 88.5,149.5C 86.9246,148.544 85.258,147.877 83.5,147.5C 86.5307,150.687 90.0307,153.353 94,155.5C 96.434,158.795 98.1007,162.462 99,166.5C 99.4998,176.828 99.6665,187.161 99.5,197.5C 98.5041,197.586 97.6708,197.252 97,196.5C 96.5357,197.094 96.369,197.761 96.5,198.5C 89.1493,193.815 83.6493,187.482 80,179.5C 77.2194,176.264 74.2194,173.264 71,170.5C 70.3333,171.167 70.3333,171.833 71,172.5C 74.9924,177.15 78.4924,182.15 81.5,187.5C 81.1667,187.833 80.8333,188.167 80.5,188.5C 75.9648,186.697 71.2982,185.863 66.5,186C 74.3554,187.6 81.3554,190.767 87.5,195.5C 85.1766,196.058 82.8432,196.725 80.5,197.5C 80.7093,198.086 81.0426,198.586 81.5,199C 79.7444,199.202 78.0777,199.702 76.5,200.5C 76.5018,202.741 76.1684,205.074 75.5,207.5C 72.9159,208.393 70.2492,208.726 67.5,208.5C 67.719,209.675 67.3857,210.675 66.5,211.5C 64.5,210.167 62.8333,208.5 61.5,206.5C 58.5499,207.488 55.5499,208.321 52.5,209C 53.3279,209.915 54.3279,210.581 55.5,211C 52.7046,212.036 50.038,213.369 47.5,215C 49.0356,216.599 49.5356,218.433 49,220.5C 45.2744,219.637 41.9411,217.971 39,215.5C 37.9148,216.293 36.7481,216.96 35.5,217.5C 34.2404,215.647 34.2404,213.814 35.5,212C 35,211.5 34.5,211 34,210.5C 30.369,211.911 26.869,211.578 23.5,209.5C 25.1667,208.333 26.8333,207.167 28.5,206C 27.1279,205.598 25.7946,205.098 24.5,204.5C 23.1667,203.833 23.1667,203.167 24.5,202.5C 27.1756,201.162 29.8422,199.829 32.5,198.5C 32.2907,197.914 31.9574,197.414 31.5,197C 33.7885,196.178 36.1218,195.511 38.5,195C 35.4531,194.484 33.1198,192.984 31.5,190.5C 30.2116,193.872 28.2116,196.872 25.5,199.5C 23.1507,197.796 22.1507,195.463 22.5,192.5C 17.0675,193.187 16.4008,192.021 20.5,189C 19.5,188.833 18.5,188.667 17.5,188.5C 15.3233,189.246 13.3233,190.246 11.5,191.5C 8.68147,189.718 6.68147,187.218 5.5,184C 2.29154,183.113 2.29154,181.447 5.5,179C 3.83333,177.667 2.16667,176.333 0.5,175C 6.99289,173.274 6.99289,171.274 0.5,169C 1.94944,167.883 3.61611,167.216 5.5,167C 4.41679,164.944 2.75012,163.611 0.5,163C 2.60703,161.736 3.60703,159.903 3.5,157.5C -0.133134,157.557 -0.2998,156.557 3,154.5C 3.74289,152.559 3.57622,150.726 2.5,149C 5.48162,148.502 8.48162,148.335 11.5,148.5C 11.4379,144.004 11.9379,139.671 13,135.5C 9.59149,136.622 6.09149,136.789 2.5,136C 4.16667,134.833 5.83333,133.667 7.5,132.5C 6.28597,130.931 4.6193,130.098 2.5,130C 3.66508,128.916 4.99842,128.083 6.5,127.5C 7.16667,124.5 7.83333,121.5 8.5,118.5C 14.2189,118.503 19.2189,116.669 23.5,113C 18.3515,111.53 18.1848,109.697 23,107.5C 24.0006,103.741 26.5006,102.074 30.5,102.5C 30.2601,99.4212 30.5934,96.4212 31.5,93.5C 35.0737,92.1393 36.7404,93.4727 36.5,97.5C 39.4245,97.5402 42.0912,96.7068 44.5,95C 42.8333,94 41.1667,93 39.5,92C 42.0094,90.5787 44.3428,88.9121 46.5,87C 44.5,85.6667 42.5,84.3333 40.5,83C 42.0261,81.1129 44.0261,80.1129 46.5,80C 38.5,78 38.5,76 46.5,74C 50.2041,73.1958 53.7041,73.6958 57,75.5C 55.8904,72.5921 56.3904,69.9255 58.5,67.5C 55.3215,66.4108 52.6548,64.5774 50.5,62C 53.1667,61.6667 55.8333,61.3333 58.5,61C 48.0637,56.3136 48.2303,54.8136 59,56.5C 59.6838,55.2161 59.5171,54.0495 58.5,53C 56.8333,52.6667 55.1667,52.3333 53.5,52C 55.5,50.6667 57.5,49.3333 59.5,48C 57.7148,46.8372 55.7148,46.1705 53.5,46C 55.6705,44.4138 58.0038,43.0804 60.5,42C 60.0426,41.586 59.7093,41.086 59.5,40.5C 62.7573,39.7637 65.924,38.7637 69,37.5C 70.0544,36.5176 70.5544,35.3509 70.5,34C 74.2274,33.9938 77.0607,32.4938 79,29.5C 80.9459,31.8806 82.7792,34.3806 84.5,37C 85.7932,37.49 87.1266,37.6567 88.5,37.5C 88.8511,34.7623 89.5178,32.0956 90.5,29.5C 91.5,28.1667 92.5,28.1667 93.5,29.5C 95.7113,35.9252 97.3779,35.5918 98.5,28.5C 97.1667,28.5 95.8333,28.5 94.5,28.5C 94.67,27.1779 94.3366,26.0113 93.5,25C 91.8333,24.6667 90.1667,24.3333 88.5,24C 93.6894,21.6941 93.6894,19.6941 88.5,18C 91.2146,17.1253 92.5479,15.2919 92.5,12.5C 94.604,12.7989 96.604,12.4656 98.5,11.5C 97.0011,10.0962 97.3344,9.42956 99.5,9.5C 101.274,9.88681 102.941,10.5535 104.5,11.5C 106.582,6.20209 108.416,6.20209 110,11.5C 111.706,9.12702 113.706,7.12702 116,5.5C 120.224,7.0541 122.557,10.0541 123,14.5C 130.742,11.0477 131.909,12.2144 126.5,18C 127.5,18.6667 128.5,18.6667 129.5,18C 130.56,16.702 131.726,15.5353 133,14.5C 133.5,14.6667 134,14.8333 134.5,15C 136.208,18.2927 137.208,21.7927 137.5,25.5C 143.283,26.5543 143.617,28.221 138.5,30.5C 141.513,33.3487 144.18,36.5153 146.5,40C 149.428,39.5441 152.428,39.5441 155.5,40C 151.366,42.5507 151.533,44.7173 156,46.5C 156.651,48.235 156.485,49.9017 155.5,51.5C 156.833,52.1667 158.167,52.8333 159.5,53.5C 158.833,54.1667 158.167,54.8333 157.5,55.5C 159.167,56.6667 160.833,57.8333 162.5,59C 161.833,59.6667 161.167,60.3333 160.5,61C 161.984,62.5737 163.651,63.907 165.5,65C 163.913,65.8624 162.246,66.5291 160.5,67C 161.984,68.5737 163.651,69.907 165.5,71C 163.246,72.651 160.912,72.8177 158.5,71.5C 157.307,73.5267 155.64,75.0267 153.5,76C 153.833,76.3333 154.167,76.6667 154.5,77C 152.655,78.128 150.655,78.628 148.5,78.5C 148.08,80.674 148.08,82.674 148.5,84.5C 149.833,83.1667 151.167,81.8333 152.5,80.5C 153.833,81.1667 154.833,82.1667 155.5,83.5C 157.423,84.3078 159.423,84.8078 161.5,85C 162.047,85.9246 162.713,86.7579 163.5,87.5C 165.544,85.6445 167.711,84.9778 170,85.5C 172.04,89.4416 174.874,92.6083 178.5,95C 177.556,96.4768 176.223,97.4768 174.5,98C 176.002,98.5831 177.335,99.4164 178.5,100.5C 176.769,102.345 175.102,104.178 173.5,106C 173.833,106.5 174.167,107 174.5,107.5C 178.442,106.4 182.442,106.233 186.5,107C 187.451,107.718 187.617,108.551 187,109.5C 185.745,110.211 184.579,111.044 183.5,112C 187.431,112.403 188.431,114.236 186.5,117.5 Z M 41.5,99.5 C 43.1172,100.038 44.7839,100.371 46.5,100.5C 46.7692,102.429 46.2692,104.095 45,105.5C 43.5576,103.609 42.3909,101.609 41.5,99.5 Z M 163.5,105.5 C 167.97,105.03 168.47,106.03 165,108.5C 163.961,107.756 163.461,106.756 163.5,105.5 Z M 19.5,138.5 C 24.4285,139.333 24.5952,140.333 20,141.5C 16.9925,141.001 16.8259,140.001 19.5,138.5 Z M 31.5,190.5 C 32.1495,188.565 32.4828,186.565 32.5,184.5C 36.0145,184.121 39.3479,183.121 42.5,181.5C 42.723,182.967 43.0563,184.467 43.5,186C 42.8333,187 42.1667,188 41.5,189C 38.1464,189.455 34.8131,189.955 31.5,190.5 Z"/></g>
<g><path style="opacity:1" fill="#773a11" d="M 109.5,196.5 C 108.913,197.767 108.913,198.767 109.5,199.5C 111.529,198.156 113.529,196.823 115.5,195.5C 124.312,189.255 133.645,183.755 143.5,179C 147.611,177.109 151.944,176.109 156.5,176C 145.089,170.266 140.256,161.099 142,148.5C 143.076,145.921 144.909,144.254 147.5,143.5C 152.154,143.395 152.654,144.729 149,147.5C 146.115,159.371 149.615,168.704 159.5,175.5C 158.699,177.042 158.366,178.708 158.5,180.5C 153.821,180.334 149.155,180.501 144.5,181C 134.786,185.909 125.786,191.742 117.5,198.5C 114.562,199.937 112.062,201.937 110,204.5C 107.313,213.644 105.646,222.977 105,232.5C 102.194,255.47 101.527,278.47 103,301.5C 105.5,316.001 108,330.501 110.5,345C 110.333,350.5 107.5,353.333 102,353.5C 97.2488,353.643 93.7488,351.643 91.5,347.5C 94.7616,330.299 95.4282,312.966 93.5,295.5C 94.3812,274.329 95.3812,253.163 96.5,232C 97.2348,220.365 95.4015,209.198 91,198.5C 89.9609,197.29 88.7942,196.29 87.5,195.5C 81.3554,190.767 74.3554,187.6 66.5,186C 71.2982,185.863 75.9648,186.697 80.5,188.5C 80.8333,188.167 81.1667,187.833 81.5,187.5C 78.4924,182.15 74.9924,177.15 71,172.5C 70.3333,171.833 70.3333,171.167 71,170.5C 74.2194,173.264 77.2194,176.264 80,179.5C 83.6493,187.482 89.1493,193.815 96.5,198.5C 98.8529,202.812 99.8529,202.478 99.5,197.5C 99.6665,187.161 99.4998,176.828 99,166.5C 98.1007,162.462 96.434,158.795 94,155.5C 90.0307,153.353 86.5307,150.687 83.5,147.5C 85.258,147.877 86.9246,148.544 88.5,149.5C 88.8333,149 89.1667,148.5 89.5,148C 88.3458,145.563 87.8458,143.063 88,140.5C 90.0944,145.702 92.9277,150.369 96.5,154.5C 97.9779,134.186 98.4779,113.853 98,93.5C 94.0115,81.3481 87.8448,70.5148 79.5,61C 81.3867,60.8374 82.8867,61.6707 84,63.5C 85.3333,65.5 86.6667,67.5 88,69.5C 87.8385,63.3549 86.3385,57.5216 83.5,52C 84.1667,51.3333 84.8333,51.3333 85.5,52C 86.7938,54.087 87.9605,56.2537 89,58.5C 89.3226,69.8082 92.9893,79.8082 100,88.5C 100.498,85.1832 100.665,81.8499 100.5,78.5C 101.268,77.7375 101.768,76.7375 102,75.5C 102.981,81.864 103.481,81.5306 103.5,74.5C 105.855,60.0795 108.688,45.7462 112,31.5C 112.167,33.8333 112.333,36.1667 112.5,38.5C 110.44,52.5233 108.274,66.5233 106,80.5C 104.691,100.824 104.024,121.157 104,141.5C 105.574,140.016 106.907,138.349 108,136.5C 111.221,122.619 115.221,108.952 120,95.5C 120.556,93.4049 121.056,93.2382 121.5,95C 117.321,107.239 114.154,119.739 112,132.5C 110.112,137.945 107.445,142.945 104,147.5C 102.992,161.927 103.658,176.261 106,190.5C 108.434,187.205 110.101,183.538 111,179.5C 114.067,167.29 116.4,154.957 118,142.5C 120.201,130.762 125.534,120.762 134,112.5C 122.675,129.226 117.008,147.893 117,168.5C 120.167,165.333 123.333,162.167 126.5,159C 128.212,157.249 130.212,156.582 132.5,157C 126.042,161.124 120.542,166.29 116,172.5C 114.092,180.626 111.925,188.626 109.5,196.5 Z M 115.5,195.5 C 113.529,196.823 111.529,198.156 109.5,199.5C 108.913,198.767 108.913,197.767 109.5,196.5C 110.885,195.386 112.385,194.386 114,193.5C 114.717,194.044 115.217,194.711 115.5,195.5 Z M 99.5,197.5 C 99.8529,202.478 98.8529,202.812 96.5,198.5C 96.369,197.761 96.5357,197.094 97,196.5C 97.6708,197.252 98.5041,197.586 99.5,197.5 Z"/></g>
<g><path style="opacity:1" fill="#a45d4e" d="M 103.5,74.5 C 103.481,81.5306 102.981,81.864 102,75.5C 101.768,76.7375 101.268,77.7375 100.5,78.5C 100.13,66.1198 100.63,53.7865 102,41.5C 102.17,52.6743 102.67,63.6743 103.5,74.5 Z"/></g>
<g><path style="opacity:1" fill="#a65f52" d="M 72.5,139.5 C 69.4372,137.949 66.7705,135.782 64.5,133C 67.8049,134.114 70.4716,136.281 72.5,139.5 Z"/></g>
<g><path style="opacity:1" fill="#eda3c3" d="M 189.5,135.5 C 190.5,135.5 191.5,135.5 192.5,135.5C 192.039,138.32 192.039,140.987 192.5,143.5C 192.332,145.171 191.665,146.504 190.5,147.5C 188.754,145.748 186.754,144.415 184.5,143.5C 186.17,140.825 187.836,138.159 189.5,135.5 Z"/></g>
<g><path style="opacity:1" fill="#894d3c" d="M 186.5,117.5 C 187.822,117.67 188.989,117.337 190,116.5C 190.26,119.577 189.76,122.577 188.5,125.5C 189.327,128.783 189.66,132.116 189.5,135.5C 187.836,138.159 186.17,140.825 184.5,143.5C 182.9,142.488 181.566,142.988 180.5,145C 185.804,152.823 185.637,160.657 180,168.5C 177.628,170.703 175.461,173.037 173.5,175.5C 168.982,176.037 164.315,176.037 159.5,175.5C 149.615,168.704 146.115,159.371 149,147.5C 152.654,144.729 152.154,143.395 147.5,143.5C 147.611,142.883 147.944,142.383 148.5,142C 142.726,137.711 141.393,132.545 144.5,126.5C 143.539,123.574 142.873,120.574 142.5,117.5C 144.646,117.878 146.813,118.212 149,118.5C 157.262,115.679 165.762,114.846 174.5,116C 178.343,118.366 182.343,118.866 186.5,117.5 Z"/></g>
<g><path style="opacity:1" fill="#f08e21" d="M 165.5,135.5 C 166.167,135.833 166.833,136.167 167.5,136.5C 167.833,137.167 168.167,137.833 168.5,138.5C 167.668,145.846 166.001,146.512 163.5,140.5C 164.127,139.583 164.461,138.583 164.5,137.5C 164.833,136.833 165.167,136.167 165.5,135.5 Z"/></g>
<g><path style="opacity:1" fill="#ede9e7" d="M 168.5,138.5 C 168.167,137.833 167.833,137.167 167.5,136.5C 166.968,133.54 166.301,133.207 165.5,135.5C 165.167,136.167 164.833,136.833 164.5,137.5C 155.825,143.975 149.325,142.308 145,132.5C 144.505,130.527 144.338,128.527 144.5,126.5C 148.435,119.617 154.102,117.783 161.5,121C 163.378,122.543 164.878,124.376 166,126.5C 171.601,118.509 178.268,117.509 186,123.5C 189.861,133.113 186.861,139.113 177,141.5C 173.877,141.182 171.044,140.182 168.5,138.5 Z"/></g>
<g><path style="opacity:1" fill="#af725b" d="M 167.5,136.5 C 166.833,136.167 166.167,135.833 165.5,135.5C 166.301,133.207 166.968,133.54 167.5,136.5 Z"/></g>
<g><path style="opacity:1" fill="#825242" d="M 161.5,126.5 C 162.279,129.548 162.612,132.548 162.5,135.5C 162.5,136.167 162.167,136.5 161.5,136.5C 159.512,136.827 157.512,137.16 155.5,137.5C 152.898,137.533 150.898,136.533 149.5,134.5C 150.833,134.5 152.167,134.5 153.5,134.5C 158.559,136.139 161.226,134.139 161.5,128.5C 161.5,127.833 161.5,127.167 161.5,126.5 Z"/></g>
<g><path style="opacity:1" fill="#fbfbfb" d="M 174.5,132.5 C 175.833,133.167 175.833,133.833 174.5,134.5C 173.5,134.5 172.5,134.5 171.5,134.5C 171.821,132.952 172.821,132.285 174.5,132.5 Z"/></g>
<g><path style="opacity:1" fill="#393433" d="M 172.5,123.5 C 169.639,127.235 169.306,130.901 171.5,134.5C 174.595,137.629 178.261,138.295 182.5,136.5C 182.389,137.117 182.056,137.617 181.5,138C 171.889,140.055 167.722,136.221 169,126.5C 169.759,124.937 170.926,123.937 172.5,123.5 Z"/></g>
<g><path style="opacity:1" fill="#fefffe" d="M 152.5,132.5 C 153.338,132.842 153.672,133.508 153.5,134.5C 152.167,134.5 150.833,134.5 149.5,134.5C 149.821,132.952 150.821,132.285 152.5,132.5 Z"/></g>
<g><path style="opacity:1" fill="#3f3a38" d="M 160.5,123.5 C 151.043,121.623 147.376,125.29 149.5,134.5C 150.898,136.533 152.898,137.533 155.5,137.5C 157.512,137.16 159.512,136.827 161.5,136.5C 156.855,139.361 152.355,139.027 148,135.5C 145.177,129.923 146.343,125.423 151.5,122C 154.863,121.073 157.863,121.573 160.5,123.5 Z"/></g>
<g><path style="opacity:1" fill="#845040" d="M 183.5,127.5 C 184.147,128.274 184.48,129.274 184.5,130.5C 184.281,132.693 183.615,134.693 182.5,136.5C 178.261,138.295 174.595,137.629 171.5,134.5C 172.5,134.5 173.5,134.5 174.5,134.5C 179.599,136.859 182.266,135.193 182.5,129.5C 182.833,128.833 183.167,128.167 183.5,127.5 Z"/></g>
<g><path style="opacity:1" fill="#3d3736" d="M 175.5,121.5 C 183.472,121.636 186.972,125.636 186,133.5C 184.961,134.71 183.794,135.71 182.5,136.5C 183.615,134.693 184.281,132.693 184.5,130.5C 184.48,129.274 184.147,128.274 183.5,127.5C 183.573,125.973 182.906,124.973 181.5,124.5C 179.629,123.203 177.629,122.203 175.5,121.5 Z"/></g>
<g><path style="opacity:1" fill="#2a2526" d="M 177.5,124.5 C 176.833,128.5 178.5,130.167 182.5,129.5C 182.266,135.193 179.599,136.859 174.5,134.5C 175.833,133.833 175.833,133.167 174.5,132.5C 173.791,131.596 172.791,131.263 171.5,131.5C 171.41,127.335 173.41,125.002 177.5,124.5 Z"/></g>
<g><path style="opacity:1" fill="#413b3b" d="M 160.5,124.5 C 160.5,124.167 160.5,123.833 160.5,123.5C 164.252,125.714 165.419,129.047 164,133.5C 163.283,134.044 162.783,134.711 162.5,135.5C 162.612,132.548 162.279,129.548 161.5,126.5C 161.672,125.508 161.338,124.842 160.5,124.5 Z"/></g>
<g><path style="opacity:1" fill="#2e2828" d="M 156.5,124.5 C 155.062,129.262 156.729,130.595 161.5,128.5C 161.226,134.139 158.559,136.139 153.5,134.5C 153.672,133.508 153.338,132.842 152.5,132.5C 151.602,131.842 150.602,131.176 149.5,130.5C 150.031,126.401 152.364,124.401 156.5,124.5 Z"/></g>
<g><path style="opacity:1" fill="#f5f2f1" d="M 177.5,124.5 C 178.833,124.5 180.167,124.5 181.5,124.5C 182.906,124.973 183.573,125.973 183.5,127.5C 183.167,128.167 182.833,128.833 182.5,129.5C 178.5,130.167 176.833,128.5 177.5,124.5 Z"/></g>
<g><path style="opacity:1" fill="#f2f2f2" d="M 156.5,124.5 C 157.833,124.5 159.167,124.5 160.5,124.5C 161.338,124.842 161.672,125.508 161.5,126.5C 161.5,127.167 161.5,127.833 161.5,128.5C 156.729,130.595 155.062,129.262 156.5,124.5 Z"/></g>
<g><path style="opacity:1" fill="#855a4c" d="M 175.5,121.5 C 177.629,122.203 179.629,123.203 181.5,124.5C 180.167,124.5 178.833,124.5 177.5,124.5C 173.41,125.002 171.41,127.335 171.5,131.5C 172.791,131.263 173.791,131.596 174.5,132.5C 172.821,132.285 171.821,132.952 171.5,134.5C 169.306,130.901 169.639,127.235 172.5,123.5C 172.973,122.094 173.973,121.427 175.5,121.5 Z"/></g>
<g><path style="opacity:1" fill="#885849" d="M 160.5,123.5 C 160.5,123.833 160.5,124.167 160.5,124.5C 159.167,124.5 157.833,124.5 156.5,124.5C 152.364,124.401 150.031,126.401 149.5,130.5C 150.602,131.176 151.602,131.842 152.5,132.5C 150.821,132.285 149.821,132.952 149.5,134.5C 147.376,125.29 151.043,121.623 160.5,123.5 Z"/></g>
<g><path style="opacity:1" fill="#75380d" d="M 184.5,143.5 C 186.754,144.415 188.754,145.748 190.5,147.5C 191.933,152.936 191.6,158.269 189.5,163.5C 186.473,168.858 182.14,172.858 176.5,175.5C 175.5,175.5 174.5,175.5 173.5,175.5C 175.461,173.037 177.628,170.703 180,168.5C 185.637,160.657 185.804,152.823 180.5,145C 181.566,142.988 182.9,142.488 184.5,143.5 Z"/></g>
<g><path style="opacity:1" fill="#98543f" d="M 72.5,139.5 C 76.3523,141.925 80.019,144.591 83.5,147.5C 79.6717,145.421 75.6717,143.588 71.5,142C 73.6192,141.658 73.9526,140.825 72.5,139.5 Z"/></g>
<g><path style="opacity:1" fill="#f39123" d="M 159.5,175.5 C 164.315,176.037 168.982,176.037 173.5,175.5C 174.5,175.5 175.5,175.5 176.5,175.5C 176.5,177.167 176.5,178.833 176.5,180.5C 170.5,181.833 164.5,181.833 158.5,180.5C 158.366,178.708 158.699,177.042 159.5,175.5 Z"/></g>
<g><path style="opacity:1" fill="#efa6c8" d="M 189.5,163.5 C 191.969,164.569 194.302,165.902 196.5,167.5C 195.088,168.806 193.421,169.64 191.5,170C 193.167,171.167 194.833,172.333 196.5,173.5C 195.975,174.192 195.308,174.692 194.5,175C 190.167,175.333 185.833,175.667 181.5,176C 183.126,178.628 185.126,180.961 187.5,183C 185.33,184.586 182.996,185.92 180.5,187C 183.043,187.14 185.377,187.806 187.5,189C 183.874,191.528 179.874,193.195 175.5,194C 176.551,195.385 177.884,196.385 179.5,197C 177.256,197.906 174.923,198.406 172.5,198.5C 169.497,197.862 166.497,197.695 163.5,198C 163.167,198.333 162.833,198.667 162.5,199C 165.315,201.521 164.982,203.187 161.5,204C 162.872,205.242 163.872,206.742 164.5,208.5C 162.219,209.185 159.886,209.351 157.5,209C 154.872,212.147 151.538,213.98 147.5,214.5C 147.762,213.022 147.429,211.689 146.5,210.5C 143.916,211.393 141.249,211.726 138.5,211.5C 138.5,212.833 138.5,214.167 138.5,215.5C 132.895,215.632 127.895,213.965 123.5,210.5C 121.867,211.744 120.867,211.244 120.5,209C 121.148,207.56 121.481,206.06 121.5,204.5C 120.448,204.649 119.448,204.483 118.5,204C 119.453,202.045 120.787,200.378 122.5,199C 120.866,198.506 119.199,198.34 117.5,198.5C 125.786,191.742 134.786,185.909 144.5,181C 149.155,180.501 153.821,180.334 158.5,180.5C 164.5,181.833 170.5,181.833 176.5,180.5C 176.5,178.833 176.5,177.167 176.5,175.5C 182.14,172.858 186.473,168.858 189.5,163.5 Z"/></g>
</svg>
